<?xml version="1.0" encoding="UTF-8"?>
<svg version="1.1" xmlns="http://www.w3.org/2000/svg" width="190" height="227">
<path d="M0 0 C16.5 0 33 0 50 0 C50 70.95 50 141.9 50 215 C11 215 11 215 0 214 C0 143.38 0 72.76 0 0 Z " fill="#8FB7E1" transform="translate(132,6)"/>
<path d="M0 0 C16.5 0 33 0 50 0 C50 70.95 50 141.9 50 215 C11 215 11 215 0 214 C0 143.38 0 72.76 0 0 Z " fill="#466481" transform="translate(70,6)"/>
<path d="M0 0 C16.5 0 33 0 50 0 C50 70.62 50 141.24 50 214 C37.60333801 215.12696927 37.60333801 215.12696927 32.1875 215.1328125 C30.42019531 215.13474609 30.42019531 215.13474609 28.6171875 215.13671875 C27.42351563 215.13285156 26.22984375 215.12898437 25 215.125 C23.80632813 215.12886719 22.61265625 215.13273438 21.3828125 215.13671875 C20.20460938 215.13542969 19.02640625 215.13414062 17.8125 215.1328125 C16.76707031 215.13168457 15.72164062 215.13055664 14.64453125 215.12939453 C9.7516086 214.95567742 4.8758986 214.44326351 0 214 C0 143.38 0 72.76 0 0 Z " fill="#072F57" transform="translate(8,6)"/>
</svg>
